/* XPM */
static char * fast_fleche_droite_xpm[] = {
"32 32 14 1",
" 	c None",
".	c #000000",
"+	c #1A1A1A",
"@	c #333333",
"#	c #4C4C4C",
"$	c #666666",
"%	c #808080",
"&	c #003300",
"*	c #999999",
"=	c #009900",
"-	c #B2B2B2",
";	c #00FF00",
">	c #CCCCCC",
",	c #E6E6E6",
"                                ",
"                                ",
"            ........            ",
"         ....++++++....         ",
"        ..+++@@@@@@+++..        ",
"       ..+@@@######@@@+..       ",
"      ..+@###$$$$$$###@+..      ",
"     ..+@#$$$%%%%%&$$$#@+..     ",
"    ..+@#$%%%&***&=&%%$#@+..    ",
"   ..+@#$%**&=&-&=;=&*%$#@+..   ",
"   .+@#$%*-&=;=&>&=;=&*%$#@+.   ",
"   .+@#$%*->&=;=&,&=;=&%$#@+.   ",
"  ..+@#$%*->,&=;=&,&=;=&$#@+..  ",
"  .+@#$&&&&&&&&=;=&,&=;=&$#@+.  ",
"  .+@#&========;;;=&,&=;=&#@+.  ",
"  .+@&=;;;;;;;;;;;;=&,&=;=&@+.  ",
"  .+@&=;;;;;;;;;;;;=&,&=;=&@+.  ",
"  .+@#&========;;;=&,&=;=&#@+.  ",
"  .+@#$&&&&&&&&=;=&,&=;=&$#@+.  ",
"  .+@#$%*->,,&=;=&,&=;=&%$#@+.  ",
"  ..+@#$%*->&=;=&,&=;=&%$#@+..  ",
"   .+@#$%*-&=;=&,&=;=&*%$#@+.   ",
"   ..+@#$%*-&=&>&=;=&*%$#@+..   ",
"    .+@#$%%**&---&=&*%%$#@+.    ",
"    ..+@#$$%%%****&%%$$#@+..    ",
"     ..+@##$$$%%%%$$$##@+..     ",
"      ..+@@###$$$$###@@+..      ",
"       ..++@@@####@@@++..       ",
"        ...+++@@@@+++...        ",
"          ....++++....          ",
"             ......             ",
"                                "};
